<svg id="Layer_1" data-name="Layer 1" xmlns="http://www.w3.org/2000/svg" viewBox="0 0 448 511.9939"><defs><style>.cls-1{fill:#fff;}</style></defs><title>bagit-icon</title><path class="cls-1" d="M336,111.797a16,16,0,0,1,0,32H176a16,16,0,0,1,0-32Zm9.25,48H166.734C87.469,217.609,32,340.141,32,417.953c0,104.656,100.281,93.5,224,93.5s224,11.156,224-93.5C480,340.141,424.531,217.609,345.25,159.797Zm-178.516-64H345.25S416,34.078,384,7.078s-103,30-128,28c-25,2-96-55-128-28S166.734,95.797,166.734,95.797Z" transform="translate(-32 0.1964)"/></svg>