<svg id="Layer_1" data-name="Layer 1" xmlns="http://www.w3.org/2000/svg" viewBox="0 0 448 511.9939"><defs><style>.cls-1{fill:#c60000;}</style></defs><title>bagit-red</title><path class="cls-1" d="M304,111.9934a16,16,0,0,1,0,32H144a16,16,0,1,1,0-32Zm9.25,48H134.734C55.469,217.8054,0,340.3374,0,418.1494c0,104.656,100.281,93.5,224,93.5s224,11.156,224-93.5C448,340.3374,392.531,217.8054,313.25,159.9934Zm-178.516-64H313.25S384,34.2744,352,7.2744s-103,30-128,28c-25,2-96-55-128-28S134.734,95.9934,134.734,95.9934Z" transform="translate(0 0)"/></svg>