<?xml version="1.0" encoding="utf-8"?>
<!-- Generator: Adobe Illustrator 16.0.0, SVG Export Plug-In . SVG Version: 6.00 Build 0)  -->
<!DOCTYPE svg PUBLIC "-//W3C//DTD SVG 1.1//EN" "http://www.w3.org/Graphics/SVG/1.1/DTD/svg11.dtd">
<svg version="1.1" id="Layer_1" xmlns="http://www.w3.org/2000/svg" xmlns:xlink="http://www.w3.org/1999/xlink" x="0px" y="0px"
	 width="512px" height="512px" viewBox="0 0 512 512" enable-background="new 0 0 512 512" xml:space="preserve">
<path d="M336,111.281c8.844,0,16,7.156,16,16s-7.156,16-16,16H176c-8.844,0-16-7.156-16-16s7.156-16,16-16H336z M480,417.438
	c0,86.281-68.125,93.844-161.375,93.844c-19.875,0-40.891-0.344-62.625-0.344c-21.75,0-42.75,0.344-62.641,0.344
	C100.141,511.281,32,503.688,32,417.438c0-77.813,55.469-200.344,134.734-258.156H345.25C424.531,217.094,480,339.625,480,417.438z
	 M448,417.438c0-65.375-46.25-171.656-113.625-226.156H177.594C110.25,245.781,64,352.063,64,417.438
	c0,46.406,18.703,61.844,129.359,61.844c9.641,0,19.531-0.094,29.656-0.156c10.766-0.094,21.781-0.188,32.984-0.188
	s22.219,0.094,32.969,0.188c10.125,0.063,20.031,0.156,29.656,0.156C429.313,479.281,448,463.844,448,417.438z M128,6.563
	c6.156-5.188,13.734-7.281,22.156-7.281c34.672,0,83.5,35.313,104.5,35.313c0.469,0,0.906,0,1.344-0.031
	c0.438,0.031,0.875,0.031,1.344,0.031c21,0,69.844-35.313,104.5-35.313c8.406,0,16,2.094,22.156,7.281
	c32,27-38.75,88.719-38.75,88.719H166.734C166.734,95.281,96,33.563,128,6.563z M277.141,63.281h55.453
	c10.813-10.844,20.5-23.125,25.031-31.688c-12.781,1.844-32.156,10.875-46.719,17.625C298.781,54.906,287.656,60.094,277.141,63.281
	z M154.375,31.594c4.516,8.563,14.188,20.844,25.016,31.688h55.469c-10.516-3.188-21.641-8.375-33.766-14.063
	C186.547,42.469,167.172,33.438,154.375,31.594z"/>
</svg>
