<?xml version="1.0" encoding="utf-8"?>
<!-- Generator: Adobe Illustrator 20.0.0, SVG Export Plug-In . SVG Version: 6.00 Build 0)  -->
<svg version="1.1" id="Layer_1" xmlns="http://www.w3.org/2000/svg" xmlns:xlink="http://www.w3.org/1999/xlink" x="0px" y="0px"
	 viewBox="0 0 512 512" style="enable-background:new 0 0 512 512;" xml:space="preserve">
<style type="text/css">
	.st0{fill:#FFFFFF;}
</style>
<path class="st0" d="M336,111.8c8.8,0,16,7.2,16,16s-7.2,16-16,16H176c-8.8,0-16-7.2-16-16s7.2-16,16-16H336z M345.2,159.8H166.7
	C87.5,217.6,32,340.1,32,418c0,104.7,100.3,93.5,224,93.5s224,11.2,224-93.5C480,340.1,424.5,217.6,345.2,159.8z M166.7,95.8h178.5
	c0,0,70.8-61.7,38.8-88.7s-103,30-128,28c-25,2-96-55-128-28S166.7,95.8,166.7,95.8z"/>
</svg>
