<svg xmlns="http://www.w3.org/2000/svg" viewBox="0 0 448 511.9939"><title>bagit-update</title><g id="Layer_1" data-name="Layer 1"><path d="M166.734,95.797H345.25S416,34.078,384,7.078s-103,30-128,28c-25,2-96-55-128-28S166.734,95.797,166.734,95.797Z" transform="translate(-32 0.1964)"/><path d="M176,111.797a16,16,0,0,0,0,32H336a16,16,0,0,0,0-32Z" transform="translate(-32 0.1964)"/><path d="M345.25,159.797H166.734C87.469,217.609,32,340.141,32,417.953c0,104.656,100.281,93.5,224,93.5s224,11.156,224-93.5C480,340.141,424.531,217.609,345.25,159.797ZM256,453.2972a117.5,117.5,0,1,1,117.5-117.5A117.5,117.5,0,0,1,256,453.2972Z" transform="translate(-32 0.1964)"/></g><g id="Layer_2" data-name="Layer 2"><path d="M199.5,333.7972a57.6281,57.6281,0,0,1,9-29.2972A58.5077,58.5077,0,0,1,239,281a64.4725,64.4725,0,0,1,53,10.5L278,305l52.5,2.3986V255.5l-16,14a85.0372,85.0372,0,0,0-31.74-19.2719c-24.3425-8.1541-45.4184-2.6945-53.26-.2281-6.9689,2.1529-30.321,10.3126-46.5,34.5a87.0811,87.0811,0,0,0-14.5,49.2972Z" transform="translate(-32 0.1964)"/><path d="M311.4913,333.7972a57.6281,57.6281,0,0,1-9,29.2972,58.5077,58.5077,0,0,1-30.5,23.5,64.4725,64.4725,0,0,1-53-10.5l14-13.5-52.5-2.3986v51.8986l16-14a85.0372,85.0372,0,0,0,31.74,19.2719c24.3425,8.1541,45.4184,2.6945,53.26.2281,6.9689-2.1529,30.321-10.3126,46.5-34.5a87.0811,87.0811,0,0,0,14.5-49.2972Z" transform="translate(-32 0.1964)"/></g></svg>