<?xml version="1.0" encoding="utf-8"?>
<!-- Generator: Adobe Illustrator 16.0.0, SVG Export Plug-In . SVG Version: 6.00 Build 0)  -->
<!DOCTYPE svg PUBLIC "-//W3C//DTD SVG 1.1//EN" "http://www.w3.org/Graphics/SVG/1.1/DTD/svg11.dtd">
<svg version="1.1" id="Layer_1" xmlns="http://www.w3.org/2000/svg" xmlns:xlink="http://www.w3.org/1999/xlink" x="0px" y="0px"
	 width="512px" height="512px" viewBox="0 0 512 512" enable-background="new 0 0 512 512" xml:space="preserve">
<path d="M336,111.797c8.844,0,16,7.156,16,16s-7.156,16-16,16H176c-8.844,0-16-7.156-16-16s7.156-16,16-16H336z M345.25,159.797
	H166.734C87.469,217.609,32,340.141,32,417.953c0,104.656,100.281,93.5,224,93.5s224,11.156,224-93.5
	C480,340.141,424.531,217.609,345.25,159.797z M166.734,95.797H345.25c0,0,70.75-61.719,38.75-88.719s-103,30-128,28
	c-25,2-96-55-128-28S166.734,95.797,166.734,95.797z"/>
</svg>
